<svg xmlns="http://www.w3.org/2000/svg" width="1030" height="218" viewBox="0 0 1030 218" version="1.1"><path d="M 308.629 3.704 C 308.241 4.092, 306.715 4.571, 305.237 4.769 C 303.759 4.967, 302.053 5.541, 301.446 6.044 C 300.840 6.548, 299.253 7.161, 297.922 7.406 C 296.590 7.651, 295.387 7.941, 295.250 8.051 C 295.113 8.160, 294.663 8.313, 294.250 8.390 C 293.837 8.467, 292.938 8.888, 292.250 9.324 C 291.563 9.761, 291 9.890, 291 9.612 C 291 9.334, 287.964 10.208, 284.254 11.553 C 280.544 12.899, 277.394 14, 277.254 14 C 277.114 14, 277 49.775, 277 93.500 L 277 173 293.500 173 L 310 173 310 88 C 310 41.250, 309.850 3, 309.667 3 C 309.483 3, 309.016 3.317, 308.629 3.704 M 50.500 8.899 C 24.502 15.404, 7.873 37.913, 11.756 61.344 C 13.433 71.467, 17.008 78.225, 24.735 85.876 C 32.618 93.681, 39.647 97.600, 59.994 105.532 C 85.382 115.430, 88.500 117.725, 88.500 126.507 C 88.500 133.315, 85.996 136.865, 79.479 139.294 C 73.860 141.389, 61.409 141.726, 54.851 139.960 C 45.307 137.390, 35.431 130.234, 28.209 120.656 C 27.029 119.092, 25.656 117.967, 25.157 118.156 C 24.659 118.345, 19.462 124.228, 13.608 131.228 L 2.966 143.957 6.620 148.001 C 16.151 158.551, 30.292 167.342, 44.500 171.550 C 51.958 173.759, 55.556 174.227, 65.500 174.285 C 79.513 174.367, 86.875 172.730, 97.468 167.176 C 129.808 150.221, 133.507 107.116, 104.289 87.692 C 96.703 82.649, 94.883 81.796, 71.866 72.498 C 48.733 63.153, 44.970 60.009, 46.588 51.380 C 47.868 44.557, 55.377 40, 65.337 40 C 73.572 40, 86.530 46.117, 99.180 55.976 L 101.859 58.064 112.054 44.979 L 122.249 31.894 119.874 29.305 C 115.801 24.865, 100.648 15.472, 92.904 12.589 C 77.724 6.936, 63.346 5.684, 50.500 8.899 M 182.500 55.875 C 161.863 60.969, 143.379 79.565, 138.537 100.103 C 133.679 120.712, 139.538 141.454, 154.494 156.592 C 173.330 175.657, 199.856 180.151, 224 168.367 C 238.713 161.187, 252.374 144.058, 255.997 128.249 C 257.554 121.455, 257.538 107.442, 255.967 100.751 C 248.326 68.223, 214.984 47.856, 182.500 55.875 M 187.385 88.617 C 177.348 92.177, 169.996 102.680, 170.006 113.446 C 170.013 121.438, 171.394 126.058, 175.290 131.122 C 187.769 147.345, 213.936 144.358, 222.024 125.788 C 231.718 103.531, 210.260 80.505, 187.385 88.617" stroke="none" fill="#04135e" fill-rule="evenodd"/><path d="M 933 8.412 L 917.500 13.667 917.244 93.334 L 916.988 173 933.494 173 L 950 173 950 139.468 C 950 111.415, 950.254 105.328, 951.553 102.218 C 958.815 84.832, 983.185 84.832, 990.447 102.218 C 991.746 105.328, 992 111.415, 992 139.468 L 992 173 1008.500 173 L 1025 173 1024.985 138.750 C 1024.969 101.076, 1024.493 96.882, 1018.999 85.997 C 1014.639 77.360, 1004.507 67.040, 995.999 62.569 C 982.243 55.340, 965.604 54.201, 951.750 59.540 C 950.108 60.172, 950 58.442, 950 31.607 C 950 15.873, 949.663 3.035, 949.250 3.079 C 948.837 3.122, 941.525 5.522, 933 8.412 M 556 24.992 L 556 41 578 41 L 600 41 600 107 L 600 173 617 173 L 634 173 634 107.019 L 634 41.038 656.750 40.769 L 679.500 40.500 679.500 25 L 679.500 9.500 617.750 9.242 L 556 8.985 556 24.992 M 841 55.488 C 820.575 60.085, 803.143 75.510, 796.373 94.976 C 788.879 116.528, 794.288 140.245, 810.411 156.525 C 834.971 181.324, 872.156 181.168, 896.796 156.163 C 900.258 152.649, 902.926 149.262, 902.725 148.637 C 902.523 148.012, 896.609 143.539, 889.582 138.697 L 876.805 129.894 873.346 133.455 C 868.501 138.444, 862.587 141.183, 855.417 141.759 C 843.380 142.725, 834.348 137.515, 828.910 126.470 C 826.029 120.618, 825.777 119.366, 826.221 113.156 C 827.109 100.747, 833.999 91.859, 845.345 88.490 C 855.253 85.548, 864.044 87.537, 871.749 94.465 L 876.693 98.909 889.597 89.869 C 896.693 84.897, 902.380 80.305, 902.233 79.665 C 901.665 77.188, 887.037 64.300, 881.416 61.323 C 869.316 54.917, 853.612 52.649, 841 55.488 M 324.599 55.840 C 324.150 56.567, 343.759 105.981, 366.627 161.750 L 371.241 173 384.956 173 L 398.670 173 422.059 115.525 C 434.923 83.914, 445.744 58.601, 446.106 59.275 C 447.986 62.774, 491 160.857, 491 161.643 C 491 162.152, 486.500 173.787, 481 187.500 C 475.500 201.213, 471 213.010, 471 213.716 C 471 214.711, 474.808 215, 487.898 215 L 504.796 215 516.329 186.250 C 522.673 170.438, 537.059 134.678, 548.299 106.785 C 559.540 78.892, 568.496 55.829, 568.202 55.535 C 567.907 55.241, 560.135 55, 550.931 55 L 534.195 55 521.407 87 C 514.373 104.600, 508.352 119, 508.027 119 C 507.701 119, 502.751 107.863, 497.026 94.250 C 491.302 80.638, 485.155 66.237, 483.366 62.250 L 480.114 55 445.645 55 L 411.177 55 403.236 75.250 C 398.869 86.388, 393.093 101.237, 390.401 108.250 C 387.709 115.263, 385.280 120.990, 385.003 120.977 C 384.726 120.965, 378.857 106.227, 371.960 88.227 L 359.420 55.500 342.283 55.227 C 332.858 55.076, 324.900 55.352, 324.599 55.840 M 709.500 56.888 C 699.714 59.734, 692.135 64.063, 684.598 71.110 C 671.946 82.938, 665.711 96.852, 665.608 113.483 C 665.501 130.684, 670.861 143.836, 682.982 156.118 C 694.740 168.033, 708.917 174.019, 725.299 173.985 C 739.261 173.957, 753.961 168.404, 763.845 159.423 L 768.500 155.195 766 152.496 C 764.625 151.011, 759.579 146.209, 754.788 141.824 L 746.075 133.852 741.788 136.767 C 735.944 140.741, 731.794 142.002, 724.601 141.990 C 717.335 141.979, 710.166 139.012, 705.056 133.902 L 701.653 130.500 743.476 130.239 L 785.299 129.978 784.720 116.739 C 784.319 107.558, 783.515 101.508, 782.097 97 C 776.066 77.821, 759.015 61.625, 739.505 56.543 C 731.623 54.490, 717.172 54.656, 709.500 56.888 M 720.859 87.119 C 714.651 88.034, 709.447 90.620, 705.127 94.937 L 701.560 98.500 713.280 98.782 C 719.726 98.937, 730.288 98.937, 736.750 98.782 L 748.500 98.500 744.850 94.911 C 738.310 88.482, 729.974 85.774, 720.859 87.119" stroke="none" fill="#044cae" fill-rule="evenodd"/></svg>